<svg width="14" height="14" viewBox="0 0 14 14" fill="none" xmlns="http://www.w3.org/2000/svg">
<g style="mix-blend-mode:exclusion">
<path d="M1.19531 11.875C0.929688 12.1406 0.921875 12.5938 1.19531 12.8594C1.46875 13.125 1.92188 13.125 2.1875 12.8594L7.1875 7.85938L12.1875 12.8594C12.4531 13.125 12.9141 13.1328 13.1797 12.8594C13.4453 12.5859 13.4453 12.1406 13.1797 11.875L8.17969 6.86719L13.1797 1.86719C13.4453 1.60156 13.4531 1.14844 13.1797 0.882812C12.9062 0.609375 12.4531 0.609375 12.1875 0.882812L7.1875 5.88281L2.1875 0.882812C1.92188 0.609375 1.46094 0.601562 1.19531 0.882812C0.929688 1.15625 0.929688 1.60156 1.19531 1.86719L6.19531 6.86719L1.19531 11.875Z" fill="white"/>
</g>
</svg>
