<?xml version="1.0" encoding="utf-8"?>
<!-- Generator: Adobe Illustrator 18.0.0, SVG Export Plug-In . SVG Version: 6.00 Build 0)  -->
<!DOCTYPE svg PUBLIC "-//W3C//DTD SVG 1.1//EN" "http://www.w3.org/Graphics/SVG/1.1/DTD/svg11.dtd">
<svg version="1.1" id="Layer_1" xmlns="http://www.w3.org/2000/svg" xmlns:xlink="http://www.w3.org/1999/xlink" x="0px" y="0px"
	 viewBox="0 0 100 100" enable-background="new 0 0 100 100" xml:space="preserve">
<g id="Captions">
</g>
<g id="Your_Icon">
	<path d="M50,65.8l29.3,30c2.9,3,4.9,3.1,7.9,0l5.9-6c2.9-3,3.1-4.9,0-8L62,50l31.1-31.8c2.9-3,3-5,0-8l-5.9-6c-3.1-3.1-4.9-3-7.9,0
		L50,34.2l-29.3-30c-2.9-3-4.8-3.1-7.9,0l-5.9,6c-3,3-2.9,5.1,0,8L38,50L6.9,81.8c-3.1,3.2-2.9,5.1,0,8l5.9,6c3,3.1,4.9,3,7.9,0
		L50,65.8z"/>
</g>
</svg>
