<?xml version="1.0" encoding="utf-8"?>
<!-- Generator: Adobe Illustrator 18.0.0, SVG Export Plug-In . SVG Version: 6.00 Build 0)  -->
<!DOCTYPE svg PUBLIC "-//W3C//DTD SVG 1.1//EN" "http://www.w3.org/Graphics/SVG/1.1/DTD/svg11.dtd">
<svg version="1.1" id="Layer_1" xmlns="http://www.w3.org/2000/svg" xmlns:xlink="http://www.w3.org/1999/xlink" x="0px" y="0px"
	 viewBox="0 0 160 25.8" enable-background="new 0 0 160 25.8" xml:space="preserve">
<g>
	<path fill="#6D6D6D" d="M14,13c-0.6-1.8-1.9-3.1-4-3.1c-2.7,0-4.5,2-4.5,5.4c0,3.4,1.8,5.4,4.5,5.4c2.3,0,3.5-1.4,4.1-2.9l3.3,1.8
		c-0.8,1.8-3.1,4.7-7.5,4.7c-5,0-8.4-3.2-8.4-8.9c0-5.8,3.7-9,8.4-9c4,0,6.5,2.1,7.5,4.8L14,13z"/>
	<path fill="#6D6D6D" d="M27.2,6.4c5.2,0,8.6,3.5,8.6,9c0,5.5-3.3,8.9-8.6,8.9c-5.2,0-8.6-3.5-8.6-8.9C18.7,9.9,22,6.4,27.2,6.4
		 M27.2,20.8c2.6,0,4.5-2.1,4.5-5.5c0-3.5-1.8-5.5-4.5-5.5c-2.7,0-4.5,2-4.5,5.5C22.7,18.8,24.6,20.8,27.2,20.8"/>
	<path fill="#6D6D6D" d="M53.1,9c1-1.3,2.8-2.7,5.9-2.7c2.2,0,3.6,0.6,4.5,1.7c1.1,1.2,1.5,2.4,1.5,6.2v9.7h-4.1v-8.7
		c0-3.1-0.2-5.2-3.3-5.2c-2.6,0-3.7,2-3.7,4.7v9.2h-4.1v-8.7c0-3.1-0.2-5.2-3.3-5.2c-2.5,0-3.7,2-3.7,4.7v9.2h-4.1V6.8h4.1V9
		c0.8-1.4,2.7-2.6,5.4-2.6c1.8,0,3.2,0.5,4.2,1.7C52.7,8.3,52.9,8.7,53.1,9"/>
	<path fill="#6D6D6D" d="M83.2,9c1-1.3,2.8-2.7,5.9-2.7c2.2,0,3.6,0.6,4.5,1.7c1.1,1.2,1.5,2.4,1.5,6.2v9.7H91v-8.7
		c0-3.1-0.2-5.2-3.3-5.2c-2.6,0-3.7,2-3.7,4.7v9.2h-4.1v-8.7c0-3.1-0.2-5.2-3.3-5.2c-2.5,0-3.7,2-3.7,4.7v9.2h-4.1V6.8h4.1V9
		c0.8-1.4,2.7-2.6,5.4-2.6c1.8,0,3.2,0.5,4.2,1.7C82.8,8.3,83,8.7,83.2,9"/>
	<path fill="#6D6D6D" d="M98.7,6.8h4.1v9.1c0,1.2,0,2.4,0.4,3.3c0.4,0.9,1.2,1.5,2.6,1.5c2.6,0,3.7-2,3.7-4.7V6.8h4.1v17.1h-4.1
		v-2.2c-0.8,1.4-2.7,2.6-5.1,2.6c-1.7,0-3.2-0.5-4.2-1.7c-1.1-1.2-1.5-2.4-1.5-6.2V6.8z"/>
	<path fill="#6D6D6D" d="M132.8,23.9h-4.1v-8.7c0-1.3,0-2.4-0.3-3.3c-0.4-1.2-1.3-2-3-2c-2.6,0-3.8,2-3.8,4.7v9.2h-4.1V6.8h4.1V9
		c0.8-1.5,2.7-2.6,5.3-2.6c1.9,0,3.6,0.6,4.7,2.1c0.8,1.1,1.2,2.4,1.2,5.7V23.9z"/>
	<path fill="#6D6D6D" d="M150.4,20c0,1.1,0.1,1.4,1.1,1.4h0.2v2.7c-0.2,0-0.8,0.2-1.9,0.2c-1.6,0-2.7-0.4-3-1.8h0
		c-0.7,0.8-2,1.8-5.1,1.8c-3.3,0-6-1.7-6-5.4c0-1.3,0.4-2.3,1-3c1-1.3,2.8-1.9,5.1-2.3l3.8-0.6c0.9-0.2,1.1-0.3,1.1-0.9v-0.3
		c0-1.4-0.9-2.2-3.1-2.2c-2.3,0-3.5,1-3.5,3l-3.8-0.3c-0.1-4.2,3.4-5.9,7.5-5.9c3.9,0,6.8,1.3,6.8,5V20z M146.5,17.8v-2.1
		c-0.6,0.2-1.1,0.4-2.3,0.6l-1.6,0.3c-1.9,0.4-2.8,0.9-2.8,2.3c0,1.4,0.9,2.3,2.9,2.3C144.9,21.3,146.5,20.2,146.5,17.8"/>
	<rect x="154.5" y="1.5" fill="#6D6D6D" width="4.1" height="22.5"/>
</g>
</svg>
