<?xml version="1.0" encoding="utf-8"?>
<!-- Generator: Adobe Illustrator 18.0.0, SVG Export Plug-In . SVG Version: 6.00 Build 0)  -->
<!DOCTYPE svg PUBLIC "-//W3C//DTD SVG 1.1//EN" "http://www.w3.org/Graphics/SVG/1.1/DTD/svg11.dtd">
<svg version="1.1" id="Layer_1" xmlns="http://www.w3.org/2000/svg" xmlns:xlink="http://www.w3.org/1999/xlink" x="0px" y="0px"
	 viewBox="156 246 300 300" enable-background="new 156 246 300 300" xml:space="preserve">
<g>
	<rect x="183.9" y="397.6" fill="#333333" width="14.6" height="14.6"/>
	<rect x="183.9" y="433" fill="#333333" width="14.6" height="14.6"/>
	<rect x="183.9" y="415.3" fill="#333333" width="14.6" height="14.6"/>
	<rect x="183.9" y="450.4" fill="#333333" width="14.6" height="14.6"/>
	<rect x="183.9" y="468.1" fill="#333333" width="14.6" height="14.6"/>
	<rect x="201.6" y="379.8" fill="#333333" width="14.6" height="14.6"/>
	<rect x="201.6" y="485.8" fill="#333333" width="14.6" height="14.6"/>
	<rect x="219.3" y="362.1" fill="#333333" width="14.6" height="14.6"/>
	<rect x="219.3" y="344.4" fill="#333333" width="14.6" height="14.6"/>
	<rect x="219.3" y="503.5" fill="#333333" width="14.6" height="14.6"/>
	<rect x="236.7" y="344.4" fill="#333333" width="14.6" height="14.6"/>
	<rect x="236.7" y="503.5" fill="#333333" width="14.6" height="14.6"/>
	<rect x="254.4" y="309.3" fill="#333333" width="14.6" height="14.6"/>
	<rect x="254.4" y="326.7" fill="#333333" width="14.6" height="14.6"/>
	<rect x="254.4" y="344.4" fill="#333333" width="14.6" height="14.6"/>
	<rect x="254.4" y="503.5" fill="#333333" width="14.6" height="14.6"/>
	<rect x="272.1" y="291.6" fill="#333333" width="14.6" height="14.6"/>
	<rect x="272.1" y="344.4" fill="#333333" width="14.6" height="14.6"/>
	<rect x="272.1" y="503.5" fill="#333333" width="14.6" height="14.6"/>
	<rect x="289.8" y="273.9" fill="#333333" width="14.6" height="14.6"/>
	<rect x="289.8" y="362.1" fill="#333333" width="14.6" height="14.6"/>
	<rect x="289.8" y="344.4" fill="#333333" width="14.6" height="14.6"/>
	<rect x="289.8" y="503.5" fill="#333333" width="14.6" height="14.6"/>
	<rect x="307.6" y="273.9" fill="#333333" width="14.6" height="14.6"/>
	<rect x="307.6" y="379.8" fill="#333333" width="14.6" height="14.6"/>
	<rect x="307.6" y="485.8" fill="#333333" width="14.6" height="14.6"/>
	<rect x="325.3" y="273.9" fill="#333333" width="14.6" height="14.6"/>
	<rect x="325.3" y="397.6" fill="#333333" width="14.6" height="14.6"/>
	<rect x="325.3" y="433" fill="#333333" width="14.6" height="14.6"/>
	<rect x="325.3" y="415.3" fill="#333333" width="14.6" height="14.6"/>
	<rect x="325.3" y="450.4" fill="#333333" width="14.6" height="14.6"/>
	<rect x="325.3" y="468.1" fill="#333333" width="14.6" height="14.6"/>
	<rect x="343" y="273.9" fill="#333333" width="14.6" height="14.6"/>
	<rect x="343" y="344.4" fill="#333333" width="14.6" height="14.6"/>
	<rect x="360.4" y="291.6" fill="#333333" width="14.6" height="14.6"/>
	<rect x="360.4" y="326.7" fill="#333333" width="14.6" height="14.6"/>
	<rect x="378.1" y="309.3" fill="#333333" width="14.6" height="14.6"/>
	<rect x="378.1" y="326.7" fill="#333333" width="14.6" height="14.6"/>
	<rect x="378.1" y="344.4" fill="#333333" width="14.6" height="14.6"/>
	<rect x="395.8" y="326.7" fill="#333333" width="14.6" height="14.6"/>
	<rect x="413.5" y="291.6" fill="#333333" width="14.6" height="14.6"/>
	<rect x="413.5" y="362.1" fill="#333333" width="14.6" height="14.6"/>
</g>
</svg>
