<?xml version="1.0" encoding="utf-8"?>
<!-- Generator: Adobe Illustrator 18.0.0, SVG Export Plug-In . SVG Version: 6.00 Build 0)  -->
<!DOCTYPE svg PUBLIC "-//W3C//DTD SVG 1.1//EN" "http://www.w3.org/Graphics/SVG/1.1/DTD/svg11.dtd">
<svg version="1.1" id="Layer_1" xmlns="http://www.w3.org/2000/svg" xmlns:xlink="http://www.w3.org/1999/xlink" x="0px" y="0px"
	 viewBox="156 246 300 300" enable-background="new 156 246 300 300" xml:space="preserve">
<g>
	<rect x="205.6" y="388.3" fill="#FFFFFF" width="15.3" height="15.3"/>
	<rect x="223.9" y="369.7" fill="#FFFFFF" width="15.3" height="15.3"/>
	<rect x="223.9" y="406.9" fill="#FFFFFF" width="15.3" height="15.3"/>
	<rect x="242.5" y="295.6" fill="#FFFFFF" width="15.3" height="15.3"/>
	<rect x="242.5" y="314.2" fill="#FFFFFF" width="15.3" height="15.3"/>
	<rect x="242.5" y="332.5" fill="#FFFFFF" width="15.3" height="15.3"/>
	<rect x="242.5" y="351.1" fill="#FFFFFF" width="15.3" height="15.3"/>
	<rect x="242.5" y="444.1" fill="#FFFFFF" width="15.3" height="15.3"/>
	<rect x="242.5" y="425.5" fill="#FFFFFF" width="15.3" height="15.3"/>
	<rect x="242.5" y="462.4" fill="#FFFFFF" width="15.3" height="15.3"/>
	<rect x="242.5" y="481" fill="#FFFFFF" width="15.3" height="15.3"/>
	<rect x="261.1" y="277" fill="#FFFFFF" width="15.3" height="15.3"/>
	<rect x="261.1" y="499.6" fill="#FFFFFF" width="15.3" height="15.3"/>
	<rect x="335.5" y="277" fill="#FFFFFF" width="15.3" height="15.3"/>
	<rect x="335.5" y="499.6" fill="#FFFFFF" width="15.3" height="15.3"/>
	<rect x="353.8" y="295.6" fill="#FFFFFF" width="15.3" height="15.3"/>
	<rect x="353.8" y="314.2" fill="#FFFFFF" width="15.3" height="15.3"/>
	<rect x="353.8" y="332.5" fill="#FFFFFF" width="15.3" height="15.3"/>
	<rect x="353.8" y="351.1" fill="#FFFFFF" width="15.3" height="15.3"/>
	<rect x="353.8" y="444.1" fill="#FFFFFF" width="15.3" height="15.3"/>
	<rect x="353.8" y="425.5" fill="#FFFFFF" width="15.3" height="15.3"/>
	<rect x="353.8" y="462.4" fill="#FFFFFF" width="15.3" height="15.3"/>
	<rect x="353.8" y="481" fill="#FFFFFF" width="15.3" height="15.3"/>
	<rect x="372.4" y="369.7" fill="#FFFFFF" width="15.3" height="15.3"/>
	<rect x="372.4" y="406.9" fill="#FFFFFF" width="15.3" height="15.3"/>
	<rect x="391" y="388.3" fill="#FFFFFF" width="15.3" height="15.3"/>
</g>
</svg>
