<?xml version="1.0" encoding="utf-8"?>
<!-- Generator: Adobe Illustrator 18.0.0, SVG Export Plug-In . SVG Version: 6.00 Build 0)  -->
<!DOCTYPE svg PUBLIC "-//W3C//DTD SVG 1.1//EN" "http://www.w3.org/Graphics/SVG/1.1/DTD/svg11.dtd">
<svg version="1.1" id="Layer_1" xmlns="http://www.w3.org/2000/svg" xmlns:xlink="http://www.w3.org/1999/xlink" x="0px" y="0px"
	 viewBox="156 246 300 300" enable-background="new 156 246 300 300" xml:space="preserve">
<rect x="169.5" y="312.5" width="17.6" height="17.6"/>
<rect x="169.5" y="355.2" width="17.6" height="17.6"/>
<rect x="169.5" y="333.8" width="17.6" height="17.6"/>
<rect x="169.5" y="376.5" width="17.6" height="17.6"/>
<rect x="190.8" y="291.5" width="17.6" height="17.6"/>
<rect x="190.8" y="397.9" width="17.6" height="17.6"/>
<rect x="212.2" y="270.1" width="17.6" height="17.6"/>
<rect x="212.2" y="419.2" width="17.6" height="17.6"/>
<rect x="233.1" y="270.1" width="17.6" height="17.6"/>
<rect x="233.1" y="440.6" width="17.6" height="17.6"/>
<rect x="254.5" y="270.1" width="17.6" height="17.6"/>
<rect x="254.5" y="461.5" width="17.6" height="17.6"/>
<rect x="275.8" y="291.5" width="17.6" height="17.6"/>
<rect x="275.8" y="482.9" width="17.6" height="17.6"/>
<rect x="297.2" y="312.5" width="17.6" height="17.6"/>
<rect x="297.2" y="504.2" width="17.6" height="17.6"/>
<rect x="318.5" y="291.5" width="17.6" height="17.6"/>
<rect x="318.5" y="482.9" width="17.6" height="17.6"/>
<rect x="339.9" y="270.1" width="17.6" height="17.6"/>
<rect x="339.9" y="461.5" width="17.6" height="17.6"/>
<rect x="361.2" y="270.1" width="17.6" height="17.6"/>
<rect x="361.2" y="440.6" width="17.6" height="17.6"/>
<rect x="382.2" y="270.1" width="17.6" height="17.6"/>
<rect x="382.2" y="419.2" width="17.6" height="17.6"/>
<rect x="403.6" y="291.5" width="17.6" height="17.6"/>
<rect x="403.6" y="397.9" width="17.6" height="17.6"/>
<rect x="424.9" y="312.5" width="17.6" height="17.6"/>
<rect x="424.9" y="355.2" width="17.6" height="17.6"/>
<rect x="424.9" y="333.8" width="17.6" height="17.6"/>
<rect x="424.9" y="376.5" width="17.6" height="17.6"/>
</svg>
