<?xml version="1.0" encoding="utf-8"?>
<!-- Generator: Adobe Illustrator 18.0.0, SVG Export Plug-In . SVG Version: 6.00 Build 0)  -->
<!DOCTYPE svg PUBLIC "-//W3C//DTD SVG 1.1//EN" "http://www.w3.org/Graphics/SVG/1.1/DTD/svg11.dtd">
<svg version="1.1" id="Layer_1" xmlns="http://www.w3.org/2000/svg" xmlns:xlink="http://www.w3.org/1999/xlink" x="0px" y="0px"
	 viewBox="156 246 300 300" enable-background="new 156 246 300 300" xml:space="preserve">
<g>
	<rect x="169.5" y="312.5" width="17.6" height="17.6"/>
	<rect x="169.5" y="355.2" width="17.6" height="17.6"/>
	<rect x="169.5" y="333.8" width="17.6" height="17.6"/>
	<rect x="169.5" y="376.5" width="17.6" height="17.6"/>
	<rect x="190.8" y="291.5" width="17.6" height="17.6"/>
	<rect x="190.8" y="397.9" width="17.6" height="17.6"/>
	<rect x="212.2" y="270.1" width="17.6" height="17.6"/>
	<rect x="212.2" y="419.2" width="17.6" height="17.6"/>
	<rect x="233.1" y="270.1" width="17.6" height="17.6"/>
	<rect x="233.1" y="440.6" width="17.6" height="17.6"/>
	<rect x="254.5" y="270.1" width="17.6" height="17.6"/>
	<rect x="254.5" y="461.5" width="17.6" height="17.6"/>
	<rect x="275.8" y="291.5" width="17.6" height="17.6"/>
	<rect x="275.8" y="482.9" width="17.6" height="17.6"/>
	<rect x="297.2" y="312.5" width="17.6" height="17.6"/>
	<rect x="297.2" y="504.2" width="17.6" height="17.6"/>
	<rect x="318.5" y="291.5" width="17.6" height="17.6"/>
	<rect x="318.5" y="482.9" width="17.6" height="17.6"/>
	<rect x="339.9" y="270.1" width="17.6" height="17.6"/>
	<rect x="339.9" y="461.5" width="17.6" height="17.6"/>
	<rect x="361.2" y="270.1" width="17.6" height="17.6"/>
	<rect x="361.2" y="440.6" width="17.6" height="17.6"/>
	<rect x="382.2" y="270.1" width="17.6" height="17.6"/>
	<rect x="382.2" y="419.2" width="17.6" height="17.6"/>
	<rect x="403.6" y="291.5" width="17.6" height="17.6"/>
	<rect x="403.6" y="397.9" width="17.6" height="17.6"/>
	<rect x="424.9" y="312.5" width="17.6" height="17.6"/>
	<rect x="424.9" y="355.2" width="17.6" height="17.6"/>
	<rect x="424.9" y="333.8" width="17.6" height="17.6"/>
	<rect x="424.9" y="376.5" width="17.6" height="17.6"/>
	<rect x="190.8" y="312.5" width="17.6" height="17.6"/>
	<rect x="190.8" y="355.2" width="17.6" height="17.6"/>
	<rect x="190.8" y="333.8" width="17.6" height="17.6"/>
	<rect x="190.8" y="376.3" width="17.6" height="17.6"/>
	<rect x="212.2" y="291.5" width="17.6" height="17.6"/>
	<rect x="212.2" y="334.2" width="17.6" height="17.6"/>
	<rect x="212.2" y="312.8" width="17.6" height="17.6"/>
	<rect x="212.2" y="355.5" width="17.6" height="17.6"/>
	<rect x="233.1" y="291.7" width="17.6" height="17.6"/>
	<rect x="233.1" y="334.4" width="17.6" height="17.6"/>
	<rect x="233.1" y="313.1" width="17.6" height="17.6"/>
	<rect x="233.1" y="355.8" width="17.6" height="17.6"/>
	<rect x="339.9" y="291.5" width="17.6" height="17.6"/>
	<rect x="339.9" y="312.5" width="17.6" height="17.6"/>
	<rect x="339.9" y="355.2" width="17.6" height="17.6"/>
	<rect x="339.9" y="333.8" width="17.6" height="17.6"/>
	<rect x="361.2" y="291.5" width="17.6" height="17.6"/>
	<rect x="361.2" y="334.2" width="17.6" height="17.6"/>
	<rect x="361.2" y="312.8" width="17.6" height="17.6"/>
	<rect x="361.2" y="355.5" width="17.6" height="17.6"/>
	<rect x="382.2" y="291.7" width="17.6" height="17.6"/>
	<rect x="382.2" y="334.4" width="17.6" height="17.6"/>
	<rect x="382.2" y="313.1" width="17.6" height="17.6"/>
	<rect x="382.2" y="355.8" width="17.6" height="17.6"/>
	<rect x="254.5" y="291.5" width="17.6" height="17.6"/>
	<rect x="254.5" y="334.2" width="17.6" height="17.6"/>
	<rect x="254.5" y="312.8" width="17.6" height="17.6"/>
	<rect x="254.5" y="355.5" width="17.6" height="17.6"/>
	<rect x="403.6" y="313.1" width="17.6" height="17.6"/>
	<rect x="403.6" y="334" width="17.6" height="17.6"/>
	<rect x="403.6" y="376.7" width="17.6" height="17.6"/>
	<rect x="403.6" y="355.4" width="17.6" height="17.6"/>
	<rect x="275.8" y="334.4" width="17.6" height="17.6"/>
	<rect x="275.8" y="313.1" width="17.6" height="17.6"/>
	<rect x="275.8" y="355.8" width="17.6" height="17.6"/>
	<rect x="318.5" y="334" width="17.6" height="17.6"/>
	<rect x="318.5" y="312.7" width="17.6" height="17.6"/>
	<rect x="318.5" y="355.4" width="17.6" height="17.6"/>
	<rect x="297.2" y="334.4" width="17.6" height="17.6"/>
	<rect x="297.2" y="355.8" width="17.6" height="17.6"/>
	<rect x="212.2" y="376.6" width="17.6" height="17.6"/>
	<rect x="212.2" y="397.9" width="17.6" height="17.6"/>
	<rect x="233.1" y="376.8" width="17.6" height="17.6"/>
	<rect x="233.1" y="398.2" width="17.6" height="17.6"/>
	<rect x="339.9" y="397.6" width="17.6" height="17.6"/>
	<rect x="339.9" y="376.2" width="17.6" height="17.6"/>
	<rect x="361.2" y="376.6" width="17.6" height="17.6"/>
	<rect x="361.2" y="397.9" width="17.6" height="17.6"/>
	<rect x="382.2" y="376.8" width="17.6" height="17.6"/>
	<rect x="382.2" y="398.2" width="17.6" height="17.6"/>
	<rect x="254.5" y="376.6" width="17.6" height="17.6"/>
	<rect x="254.5" y="397.9" width="17.6" height="17.6"/>
	<rect x="275.8" y="376.8" width="17.6" height="17.6"/>
	<rect x="275.8" y="398.2" width="17.6" height="17.6"/>
	<rect x="318.5" y="376.4" width="17.6" height="17.6"/>
	<rect x="318.5" y="397.8" width="17.6" height="17.6"/>
	<rect x="297.2" y="376.8" width="17.6" height="17.6"/>
	<rect x="297.2" y="398.2" width="17.6" height="17.6"/>
	<rect x="233.1" y="419.5" width="17.6" height="17.6"/>
	<rect x="339.9" y="418.9" width="17.6" height="17.6"/>
	<rect x="361.2" y="419.3" width="17.6" height="17.6"/>
	<rect x="254.5" y="419.3" width="17.6" height="17.6"/>
	<rect x="275.8" y="419.5" width="17.6" height="17.6"/>
	<rect x="318.5" y="419.1" width="17.6" height="17.6"/>
	<rect x="297.2" y="419.5" width="17.6" height="17.6"/>
	<rect x="339.9" y="440.3" width="17.6" height="17.6"/>
	<rect x="254.5" y="440.6" width="17.6" height="17.6"/>
	<rect x="275.8" y="440.9" width="17.6" height="17.6"/>
	<rect x="318.5" y="440.5" width="17.6" height="17.6"/>
	<rect x="297.2" y="440.9" width="17.6" height="17.6"/>
	<rect x="275.8" y="461.9" width="17.6" height="17.6"/>
	<rect x="318.5" y="461.5" width="17.6" height="17.6"/>
	<rect x="297.2" y="461.9" width="17.6" height="17.6"/>
	<rect x="297.2" y="482.9" width="17.6" height="17.6"/>
</g>
</svg>
