<svg width="16" height="16" viewBox="0 0 16 16" fill="none" xmlns="http://www.w3.org/2000/svg">
<path fill-rule="evenodd" clip-rule="evenodd" d="M8 0C5.82933 0 5.55556 0.00888889 4.70222 0.048C3.85067 0.0871111 3.26933 0.222222 2.76 0.419556C2.23378 0.624 1.78667 0.897778 1.34222 1.34222C0.897778 1.78667 0.625778 2.23378 0.420444 2.75911C0.222222 3.26844 0.0862222 3.84889 0.048 4.70222C0.00888889 5.55556 0 5.82667 0 8C0 10.1733 0.00888889 10.4444 0.048 11.2978C0.0871111 12.1493 0.222222 12.7307 0.421333 13.2391C0.625778 13.7653 0.897778 14.2124 1.34311 14.6569C1.78756 15.1013 2.23467 15.3751 2.76 15.5796C3.26933 15.7769 3.85067 15.912 4.70222 15.9511C5.55556 15.9911 5.82667 16 8 16C10.1733 16 10.4444 15.9911 11.2978 15.952C12.1493 15.9129 12.7316 15.7778 13.2409 15.5804C13.7653 15.376 14.2124 15.1004 14.6569 14.656C15.1013 14.2116 15.3742 13.7653 15.5787 13.24C15.776 12.7307 15.9111 12.1493 15.952 11.2978C15.9893 10.4444 15.9991 10.1724 15.9991 8C15.9991 5.82756 15.9902 5.55556 15.9511 4.70222C15.9111 3.84889 15.776 3.26844 15.5778 2.76C15.3733 2.23378 15.1004 1.78756 14.656 1.34222C14.2098 0.897778 13.7644 0.624 13.2382 0.419556C12.7289 0.222222 12.1484 0.0871111 11.2978 0.048C10.4444 0.00888889 10.1707 0 7.99733 0H8ZM7.28267 1.44178H8C10.1369 1.44178 10.3911 1.44889 11.2338 1.488C12.0133 1.52356 12.4364 1.65333 12.7182 1.76356C13.0916 1.90844 13.3582 2.08178 13.6382 2.36178C13.9182 2.64178 14.0916 2.90844 14.2364 3.28178C14.3467 3.56356 14.4764 3.98667 14.512 4.76622C14.5502 5.61067 14.5591 5.86311 14.5591 7.99822C14.5591 10.1333 14.5502 10.3867 14.5111 11.2302C14.4756 12.0098 14.3458 12.4329 14.2356 12.7147C14.0907 13.088 13.9173 13.3547 13.6373 13.6338C13.3573 13.9138 13.0916 14.0871 12.7182 14.232C12.4356 14.3431 12.0116 14.472 11.232 14.5076C10.3876 14.5467 10.1351 14.5556 7.99911 14.5556C5.864 14.5556 5.61067 14.5467 4.76711 14.5084C3.98756 14.4729 3.56356 14.3431 3.28267 14.2329C2.90933 14.0889 2.64267 13.9156 2.36178 13.6356C2.08178 13.3556 1.90844 13.0898 1.76267 12.7156C1.65333 12.4347 1.52267 12.0107 1.48711 11.2311C1.44889 10.3867 1.44267 10.1342 1.44267 7.99822C1.44267 5.86133 1.44889 5.60978 1.48711 4.76622C1.52267 3.98667 1.65333 3.56267 1.76267 3.28178C1.90756 2.90844 2.08267 2.64178 2.36178 2.36089C2.64178 2.08089 2.90844 1.90756 3.28178 1.76267C3.56356 1.65333 3.98756 1.52267 4.76622 1.48711C5.504 1.45422 5.79111 1.44267 7.28178 1.44267V1.44444L7.28267 1.44178ZM12.2711 2.76978C11.7413 2.76978 11.3111 3.19911 11.3111 3.72978C11.3111 4.25956 11.7413 4.68978 12.2711 4.68978C12.8009 4.68978 13.2311 4.25956 13.2311 3.72978C13.2311 3.2 12.8009 2.76978 12.2711 2.76978ZM8 3.89156C5.73333 3.89156 3.89333 5.73156 3.89333 8C3.89333 10.2684 5.73067 12.1067 8 12.1067C10.2693 12.1067 12.1084 10.2684 12.1084 8C12.1084 5.73156 10.2684 3.89156 8.00178 3.89156H8ZM8 5.33333C9.47378 5.33333 10.6667 6.52711 10.6667 8C10.6667 9.47289 9.47378 10.6667 8 10.6667C6.528 10.6667 5.33333 9.47289 5.33333 8C5.33333 6.52711 6.528 5.33333 8 5.33333Z" fill="black"/>
</svg>
