<?xml version="1.0" encoding="utf-8"?>
<!-- Generator: Adobe Illustrator 18.0.0, SVG Export Plug-In . SVG Version: 6.00 Build 0)  -->
<!DOCTYPE svg PUBLIC "-//W3C//DTD SVG 1.1//EN" "http://www.w3.org/Graphics/SVG/1.1/DTD/svg11.dtd">
<svg version="1.1" id="Layer_1" xmlns="http://www.w3.org/2000/svg" xmlns:xlink="http://www.w3.org/1999/xlink" x="0px" y="0px"
	 viewBox="150 942 300 300" enable-background="new 150 942 300 300" xml:space="preserve">
<g>
	<rect x="161.1" y="976.5" fill="#FFFFFF" width="19.4" height="19.4"/>
	<rect x="161.1" y="1000" fill="#FFFFFF" width="19.4" height="19.4"/>
	<rect x="161.1" y="1046.7" fill="#FFFFFF" width="19.4" height="19.4"/>
	<rect x="161.1" y="1023.6" fill="#FFFFFF" width="19.4" height="19.4"/>
	<rect x="161.1" y="1070.3" fill="#FFFFFF" width="19.4" height="19.4"/>
	<rect x="161.1" y="1093.9" fill="#FFFFFF" width="19.4" height="19.4"/>
	<rect x="161.1" y="1141" fill="#FFFFFF" width="19.4" height="19.4"/>
	<rect x="161.1" y="1117.4" fill="#FFFFFF" width="19.4" height="19.4"/>
	<rect x="161.1" y="1164.5" fill="#FFFFFF" width="19.4" height="19.4"/>
	<rect x="161.1" y="1188.1" fill="#FFFFFF" width="19.4" height="19.4"/>
	<rect x="184.7" y="976.5" fill="#FFFFFF" width="19.4" height="19.4"/>
	<rect x="184.7" y="1164.5" fill="#FFFFFF" width="19.4" height="19.4"/>
	<rect x="184.7" y="1188.1" fill="#FFFFFF" width="19.4" height="19.4"/>
	<rect x="207.8" y="976.5" fill="#FFFFFF" width="19.4" height="19.4"/>
	<rect x="207.8" y="1046.7" fill="#FFFFFF" width="19.4" height="19.4"/>
	<rect x="207.8" y="1141" fill="#FFFFFF" width="19.4" height="19.4"/>
	<rect x="207.8" y="1188.1" fill="#FFFFFF" width="19.4" height="19.4"/>
	<rect x="231.4" y="976.5" fill="#FFFFFF" width="19.4" height="19.4"/>
	<rect x="231.4" y="1023.6" fill="#FFFFFF" width="19.4" height="19.4"/>
	<rect x="231.4" y="1070.3" fill="#FFFFFF" width="19.4" height="19.4"/>
	<rect x="231.4" y="1164.5" fill="#FFFFFF" width="19.4" height="19.4"/>
	<rect x="231.4" y="1188.1" fill="#FFFFFF" width="19.4" height="19.4"/>
	<rect x="254.9" y="976.5" fill="#FFFFFF" width="19.4" height="19.4"/>
	<rect x="254.9" y="1046.7" fill="#FFFFFF" width="19.4" height="19.4"/>
	<rect x="254.9" y="1141" fill="#FFFFFF" width="19.4" height="19.4"/>
	<rect x="254.9" y="1188.1" fill="#FFFFFF" width="19.4" height="19.4"/>
	<rect x="278.5" y="976.5" fill="#FFFFFF" width="19.4" height="19.4"/>
	<rect x="278.5" y="1117.4" fill="#FFFFFF" width="19.4" height="19.4"/>
	<rect x="278.5" y="1188.1" fill="#FFFFFF" width="19.4" height="19.4"/>
	<rect x="302.1" y="976.5" fill="#FFFFFF" width="19.4" height="19.4"/>
	<rect x="302.1" y="1093.9" fill="#FFFFFF" width="19.4" height="19.4"/>
	<rect x="302.1" y="1188.1" fill="#FFFFFF" width="19.4" height="19.4"/>
	<rect x="325.6" y="976.5" fill="#FFFFFF" width="19.4" height="19.4"/>
	<rect x="325.6" y="1117.4" fill="#FFFFFF" width="19.4" height="19.4"/>
	<rect x="325.6" y="1188.1" fill="#FFFFFF" width="19.4" height="19.4"/>
	<rect x="349.2" y="976.5" fill="#FFFFFF" width="19.4" height="19.4"/>
	<rect x="349.2" y="1141" fill="#FFFFFF" width="19.4" height="19.4"/>
	<rect x="349.2" y="1188.1" fill="#FFFFFF" width="19.4" height="19.4"/>
	<rect x="372.3" y="976.5" fill="#FFFFFF" width="19.4" height="19.4"/>
	<rect x="372.3" y="1164.5" fill="#FFFFFF" width="19.4" height="19.4"/>
	<rect x="372.3" y="1188.1" fill="#FFFFFF" width="19.4" height="19.4"/>
	<rect x="395.9" y="976.5" fill="#FFFFFF" width="19.4" height="19.4"/>
	<rect x="395.9" y="1188.1" fill="#FFFFFF" width="19.4" height="19.4"/>
	<rect x="419.5" y="976.5" fill="#FFFFFF" width="19.4" height="19.4"/>
	<rect x="419.5" y="1000" fill="#FFFFFF" width="19.4" height="19.4"/>
	<rect x="419.5" y="1046.7" fill="#FFFFFF" width="19.4" height="19.4"/>
	<rect x="419.5" y="1023.6" fill="#FFFFFF" width="19.4" height="19.4"/>
	<rect x="419.5" y="1070.3" fill="#FFFFFF" width="19.4" height="19.4"/>
	<rect x="419.5" y="1093.9" fill="#FFFFFF" width="19.4" height="19.4"/>
	<rect x="419.5" y="1141" fill="#FFFFFF" width="19.4" height="19.4"/>
	<rect x="419.5" y="1117.4" fill="#FFFFFF" width="19.4" height="19.4"/>
	<rect x="419.5" y="1164.5" fill="#FFFFFF" width="19.4" height="19.4"/>
	<rect x="419.5" y="1188.1" fill="#FFFFFF" width="19.4" height="19.4"/>
</g>
</svg>
