<svg width="45" height="34" viewBox="0 0 45 34" fill="none" xmlns="http://www.w3.org/2000/svg">
<path d="M0.500002 16.9219C0.500002 17.0859 0.546877 17.2031 0.664065 17.3203L16.5781 33.3984C16.9063 33.75 17.0938 33.8203 17.2578 33.8203C17.6094 33.8203 17.8203 33.5625 17.8203 33.2812C17.8203 33.0937 17.7969 32.9531 17.6797 32.8359L7.10938 22.2656L2.23438 17.4141L7.15625 17.4609L43.4844 17.4609C43.7656 17.4609 44.0234 17.2266 44.0234 16.9219C44.0234 16.6172 43.7656 16.3828 43.4844 16.3828L7.15625 16.3828L2.23438 16.4297L7.10938 11.5781L17.6797 1.00781C17.7734 0.91406 17.8203 0.749997 17.8203 0.585935C17.8203 0.304685 17.6094 0.0468722 17.2578 0.0468721C17.0938 0.0468721 16.9766 0.0937471 16.8594 0.210935L0.664065 16.5234C0.546877 16.6406 0.500002 16.7578 0.500002 16.9219Z" fill="black"/>
</svg>
