<?xml version="1.0" encoding="utf-8"?>
<!-- Generator: Adobe Illustrator 24.2.1, SVG Export Plug-In . SVG Version: 6.00 Build 0)  -->
<svg version="1.1" id="Layer_1" xmlns="http://www.w3.org/2000/svg" xmlns:xlink="http://www.w3.org/1999/xlink" x="0px" y="0px"
	 viewBox="0 0 233 20" style="enable-background:new 0 0 233 20;" xml:space="preserve">
<style type="text/css">
	.st0{fill:#FFFFFF;}
</style>
<path class="st0" d="M167.2,9.8c1.3,0,2.2-0.7,2.2-2c0-1.3-0.9-2.1-2.2-2.1h-2.6V12h1.3V9.8H167.2z M168.1,7.8c0,0.5-0.3,0.9-1,0.9
	h-1.2V6.8h1.2C167.8,6.8,168.1,7.2,168.1,7.8z M172.8,9.7l1.6,2.3h1.5l-1.7-2.4c0.9-0.2,1.4-0.8,1.4-1.9c0-1.3-0.9-2-2.2-2h-2.6V12
	h1.3V9.7H172.8z M172.1,6.8h1.2c0.7,0,1,0.3,1,0.9c0,0.5-0.3,0.9-1,0.9h-1.2V6.8z M182.7,8.9c0-1.9-1.2-3.2-3-3.2
	c-1.8,0-3,1.4-3,3.2c0,1.9,1.2,3.2,3,3.2C181.5,12.1,182.7,10.7,182.7,8.9z M181.4,8.9c0,1.2-0.7,2.1-1.7,2.1c-1,0-1.6-0.8-1.6-2.1
	c0-1.2,0.6-2.1,1.6-2.1C180.7,6.8,181.4,7.6,181.4,8.9z M185.4,10.8v-4h0.9c1.2,0,1.9,0.8,1.9,2c0,1.2-0.7,2-1.9,2H185.4z M184.1,12
	h2.2c1.9,0,3.1-1.2,3.1-3.1s-1.2-3.1-3.1-3.1h-2.2V12z M193.4,12.1c1.6,0,2.6-0.9,2.6-2.6V5.7h-1.3v3.6c0,1.1-0.5,1.6-1.3,1.6
	c-0.8,0-1.3-0.5-1.3-1.6V5.7h-1.3v3.8C190.8,11.2,191.8,12.1,193.4,12.1z M197.3,8.9c0,1.9,1.2,3.2,2.9,3.2c1.5,0,2.4-0.9,2.6-2.1
	h-1.3c-0.2,0.6-0.6,1-1.3,1c-1,0-1.6-0.9-1.6-2.1c0-1.2,0.6-2.1,1.6-2.1c0.7,0,1.1,0.4,1.3,1h1.3c-0.2-1.3-1.1-2.1-2.6-2.1
	C198.6,5.6,197.3,6.9,197.3,8.9z M204,8.9c0,1.9,1.2,3.2,2.9,3.2c1.5,0,2.4-0.9,2.6-2.1h-1.3c-0.2,0.6-0.6,1-1.3,1
	c-1,0-1.6-0.9-1.6-2.1c0-1.2,0.6-2.1,1.6-2.1c0.7,0,1.1,0.4,1.3,1h1.3c-0.2-1.3-1.1-2.1-2.6-2.1C205.2,5.6,204,6.9,204,8.9z
	 M212.2,5.7h-1.3V12h1.3V5.7z M217.2,5.1l1-1.2h-1.4l-0.8,1.2H217.2z M219.6,8.9c0-1.9-1.2-3.2-3-3.2c-1.8,0-3,1.4-3,3.2
	c0,1.9,1.2,3.2,3,3.2C218.3,12.1,219.6,10.7,219.6,8.9z M218.3,8.9c0,1.2-0.7,2.1-1.7,2.1c-1,0-1.6-0.8-1.6-2.1
	c0-1.2,0.6-2.1,1.6-2.1C217.6,6.8,218.3,7.6,218.3,8.9z M226.3,5.7H225v4l-2.8-4H221V12h1.3V7.8l3,4.2h1V5.7z"/>
<path class="st0" d="M105.3,5.3l2,5.6h-3.9L105.3,5.3z M103.8,0.1l-7.2,18h3.7l1.6-3.6h6.7l1.6,3.6h3.7l-7.2-18H103.8L103.8,0.1z"/>
<path class="st0" d="M19.5,0.6v10.7L12.9,0.6H9.1v17.5h3.6V6.5l6.7,11.6h3.2V0.6H19.5z"/>
<path class="st0" d="M92.8,7.8H89V3.7h3.8c1.2,0,2.1,0.8,2.1,2.1C94.9,7,94,7.8,92.8,7.8z M92.8,0.6h-4.3h-3.1v17.5H89v-7.2h3.8
	c2.9,0,5.2-2.2,5.2-5.1S95.6,0.6,92.8,0.6z"/>
<path class="st0" d="M56.7,7.8h-7.2V0.6h-3.6v17.5h3.6v-6.7h7.2v6.7h3.6V0.6h-3.6V7.8z"/>
<path class="st0" d="M28.9,3.7h5.4v14.4h3.6V3.7h5.9V0.6H28.9V3.7z"/>
<path class="st0" d="M126.5,5.8c0,1.2-0.9,2-2.1,2h-1l-2.6-4.1h3.6C125.6,3.7,126.5,4.6,126.5,5.8z M126.5,10.6
	c1.8-0.8,3.1-2.5,3.1-4.7c0-2.9-2.4-5.2-5.2-5.2h-4.3h-3.3v17.5h3.6V11h2.7l4.8,7.2h4.2L126.5,10.6z"/>
<path class="st0" d="M146.3,0.6l-3.4,7.3L138,0.6h-3.3v17.5h3.1V6.4l6.9,11.7h4.4L145,11l5-10.5H146.3z"/>
<path class="st0" d="M69.9,8.7c0.8-0.1,1.2,0,1.6,0.3c0.4,0.3,0.2,0.7,0.1,0.8c-0.3,0.3-0.8,0.5-1.6,0.4c-0.7-0.1-1.2-0.4-1.6-0.7
	C68.7,9.1,69.2,8.8,69.9,8.7z M74.6,14.3c-1.4,1.5-3.3,1.6-4.3,1.5c-1.9-0.1-2.9-1-3.3-1.8c-0.4-0.8-0.4-1.7-0.3-2.4
	c0.8,0.5,1.9,0.9,3.1,1c0.1,0,0.1,0,0.2,0c1.6,0.1,2.8-0.4,3.5-1.2c0.3-0.3,0.4-0.7,0.5-1c0.2-0.5,0.2-1.4,0.1-1.9
	c-0.1-0.4-0.3-0.8-0.6-1.1c-0.7-0.8-1.8-1.3-3.5-1.2c-0.1,0-0.1,0-0.2,0c-1.2,0.1-2.2,0.5-3.1,1c-0.1-0.7-0.1-1.4,0.3-2.2
	c0.4-0.8,1.3-1.9,3.1-1.9c2.6,0,3.9,1.4,4.4,1.8V1c-1.4-0.5-2.5-1-4.4-1c-2.7,0.1-5,1.6-5.9,3.9c-0.8,2-0.5,3.9,0.4,5.6
	c-0.9,1.6-1.2,3.8-0.3,5.8c0.9,2.3,3.1,3.9,5.9,3.9c2.2,0,4-0.7,4.4-0.9L74.6,14.3L74.6,14.3z"/>
<path class="st0" d="M0.5,11.6c-0.7,1-0.6,2.7,0,3.5c0.4,0.6,0.5,2.1,0.3,3h3.6c0.3-0.9,0.2-2.5-0.3-3.3c-0.5-0.8-0.6-2.2,0-3
	c0.7-0.9,0.7-2.9,0-3.9c-0.6-0.8-0.7-2.7,0-3.5c0.6-0.7,0.7-3,0.2-3.9H0.6C1.1,1,1,3.4,0.5,4.2c-0.7,1-0.7,3.1,0,4.1
	C1.1,9.1,1,10.8,0.5,11.6z"/>
</svg>
