<svg width="233" height="20" viewBox="0 0 233 20" fill="none" xmlns="http://www.w3.org/2000/svg">
<path d="M167.164 9.81888C168.495 9.81888 169.376 9.10208 169.376 7.77088C169.376 6.42944 168.495 5.71264 167.164 5.71264H164.604V12H165.905V9.81888H167.164ZM168.086 7.77088C168.086 8.3136 167.758 8.70272 167.082 8.70272H165.905V6.8288H167.082C167.758 6.8288 168.086 7.20768 168.086 7.77088ZM172.753 9.65504L174.309 12H175.784L174.125 9.56288C175.006 9.34784 175.558 8.71296 175.558 7.70944C175.558 6.4192 174.678 5.71264 173.357 5.71264H170.766V12H172.067V9.65504H172.753ZM172.067 6.8288H173.275C173.93 6.8288 174.268 7.17696 174.268 7.70944C174.268 8.23168 173.93 8.57984 173.275 8.57984H172.067V6.8288ZM182.69 8.85632C182.69 6.97216 181.462 5.61024 179.711 5.61024C177.96 5.61024 176.741 6.97216 176.741 8.85632C176.741 10.7302 177.96 12.1024 179.711 12.1024C181.462 12.1024 182.69 10.7302 182.69 8.85632ZM181.369 8.85632C181.369 10.0851 180.714 10.935 179.711 10.935C178.717 10.935 178.072 10.0851 178.072 8.85632C178.072 7.62752 178.717 6.7776 179.711 6.7776C180.714 6.7776 181.369 7.62752 181.369 8.85632ZM185.411 10.8429V6.85952H186.281C187.479 6.85952 188.134 7.62752 188.134 8.85632C188.134 10.0749 187.479 10.8429 186.281 10.8429H185.411ZM184.11 12H186.332C188.237 12 189.435 10.7712 189.435 8.85632C189.435 6.94144 188.237 5.71264 186.332 5.71264H184.11V12ZM193.381 12.1024C194.958 12.1024 195.992 11.2013 195.992 9.47072V5.71264H194.682V9.3376C194.682 10.4128 194.211 10.9248 193.381 10.9248C192.552 10.9248 192.081 10.4128 192.081 9.3376V5.71264H190.77V9.47072C190.77 11.2013 191.814 12.1024 193.381 12.1024ZM197.317 8.85632C197.317 10.7814 198.566 12.1024 200.246 12.1024C201.73 12.1024 202.642 11.232 202.877 9.96224H201.577C201.362 10.5459 200.973 10.935 200.246 10.935C199.242 10.935 198.648 10.0442 198.648 8.85632C198.648 7.65824 199.242 6.7776 200.246 6.7776C200.973 6.7776 201.362 7.16672 201.577 7.74016H202.877C202.642 6.48064 201.73 5.61024 200.246 5.61024C198.566 5.61024 197.317 6.9312 197.317 8.85632ZM203.768 6.85952H205.786V12H207.106V6.85952H209.134V5.71264H203.768V6.85952ZM211.819 5.71264H210.508V12H211.819V5.71264ZM219.172 8.85632C219.172 6.97216 217.944 5.61024 216.193 5.61024C214.442 5.61024 213.223 6.97216 213.223 8.85632C213.223 10.7302 214.442 12.1024 216.193 12.1024C217.944 12.1024 219.172 10.7302 219.172 8.85632ZM217.851 8.85632C217.851 10.0851 217.196 10.935 216.193 10.935C215.199 10.935 214.554 10.0851 214.554 8.85632C214.554 7.62752 215.199 6.7776 216.193 6.7776C217.196 6.7776 217.851 7.62752 217.851 8.85632ZM225.856 5.71264H224.596V9.68576L221.821 5.71264H220.592V12H221.852V7.81184L224.821 12H225.856V5.71264ZM227.144 10.208C227.359 11.4061 228.352 12.1024 229.755 12.1024C231.086 12.1024 232.09 11.3651 232.09 10.1466C232.09 9.19424 231.465 8.61056 230.441 8.37504L229.294 8.1088C228.823 7.99616 228.588 7.78112 228.588 7.42272C228.588 6.97216 228.987 6.68544 229.581 6.68544C230.237 6.68544 230.595 7.01312 230.738 7.43296H232.039C231.834 6.368 231.005 5.61024 229.571 5.61024C228.25 5.61024 227.308 6.40896 227.308 7.5456C227.308 8.57984 228.004 9.06112 228.905 9.26592L230.032 9.52192C230.574 9.6448 230.8 9.8496 230.8 10.2285C230.8 10.7302 230.38 11.017 229.745 11.017C229.131 11.017 228.67 10.761 228.496 10.208H227.144Z" fill="white"/>
<path d="M105.311 5.2921L107.271 10.9109H103.351L105.311 5.2921ZM103.809 0.130676L96.6217 18.0976H100.346L101.914 14.5043H108.578L110.146 18.0976H113.87L106.683 0.130676H103.809V0.130676Z" fill="white"/>
<path d="M19.4618 0.588013V11.3029L12.863 0.588013H9.13898V18.0976H12.7324V6.53345L19.3965 18.0976H22.5979V0.588013H19.4618Z" fill="white"/>
<path d="M92.8324 7.7748H89.043V3.72407H92.8324C94.0084 3.72407 94.9231 4.57341 94.9231 5.81477C94.9231 6.99079 94.0084 7.7748 92.8324 7.7748ZM92.8324 0.588013H88.5203H85.4496V18.0976H89.043V10.9109H92.8324C95.7724 10.9109 97.9938 8.75482 97.9938 5.81477C97.9938 2.87472 95.6417 0.588013 92.8324 0.588013Z" fill="white"/>
<path d="M56.7024 7.7748H49.5156V0.588013H45.9222V18.0976H49.5156V11.3682H56.7024V18.0976H60.2958V0.588013H56.7024V7.7748Z" fill="white"/>
<path d="M28.8699 3.72407H34.2274V18.0976H37.8208V3.72407H43.7009V0.588013H28.8699V3.72407Z" fill="white"/>
<path d="M126.545 5.81474C126.545 6.99076 125.63 7.77478 124.454 7.77478H123.474L120.861 3.72404H124.454C125.565 3.72404 126.545 4.63872 126.545 5.81474ZM126.545 10.5842C128.374 9.73481 129.616 8.03611 129.616 5.88008C129.616 2.94003 127.264 0.65332 124.454 0.65332H120.142H116.875V18.163H120.469V10.9762H123.213L127.982 18.163H132.164L126.545 10.5842Z" fill="white"/>
<path d="M146.276 0.588013L142.879 7.90547L138.044 0.588013H134.777V18.0976H137.913V6.40278L144.839 18.0976H149.281L144.969 11.0415L150 0.588013H146.276Z" fill="white"/>
<path d="M69.9 8.68948C70.684 8.55881 71.1413 8.68948 71.468 8.95082C71.86 9.27749 71.664 9.6695 71.5333 9.80017C71.272 10.1268 70.7493 10.2575 69.9 10.1922C69.2466 10.0615 68.724 9.80017 68.2666 9.47349C68.724 9.08149 69.2466 8.82015 69.9 8.68948ZM74.604 14.3082C73.232 15.8109 71.272 15.8763 70.292 15.8109C68.3973 15.7456 67.4173 14.8309 67.0253 13.9816C66.6332 13.1322 66.6332 12.2829 66.7639 11.6295C67.6133 12.1522 68.6586 12.5442 69.8346 12.6749C69.9 12.6749 69.9653 12.6749 70.0306 12.6749C71.664 12.8056 72.84 12.2829 73.4934 11.4989C73.7547 11.1722 73.8854 10.8455 74.016 10.5188C74.212 9.99617 74.212 9.14682 74.0814 8.62415C73.9507 8.23214 73.7547 7.84013 73.4934 7.51346C72.84 6.66411 71.664 6.20677 70.0306 6.27211C69.9653 6.27211 69.9 6.27211 69.8346 6.27211C68.6586 6.40278 67.6786 6.72945 66.7639 7.31746C66.6332 6.66411 66.6986 5.8801 67.0906 5.09609C67.4826 4.24674 68.3973 3.20139 70.2266 3.20139C72.84 3.20139 74.1467 4.57341 74.604 4.96542V1.04535C73.232 0.522676 72.056 0 70.1613 0C67.4173 0.0653344 65.1306 1.56803 64.2159 3.92007C63.4319 5.94543 63.6932 7.84013 64.6079 9.47349C63.6932 11.1069 63.4319 13.2629 64.2812 15.2883C65.1959 17.575 67.4173 19.143 70.2266 19.2083C72.3827 19.2083 74.212 18.4896 74.6694 18.2936V14.3082H74.604Z" fill="white"/>
<path d="M0.5148 11.5642C-0.138544 12.5442 -0.0732099 14.2429 0.5148 15.027C0.906807 15.615 1.03748 17.1177 0.841472 18.0323H4.43487C4.76154 17.1177 4.63087 15.5496 4.10819 14.7656C3.58552 13.9163 3.52018 12.5442 4.10819 11.7602C4.82687 10.8455 4.82687 8.82018 4.10819 7.9055C3.52018 7.12148 3.45485 5.16145 4.10819 4.44277C4.6962 3.72409 4.82687 1.43739 4.3042 0.522705H0.580134C1.10281 0.980046 1.03748 3.39742 0.5148 4.18143C-0.138544 5.22678 -0.203879 7.31749 0.5148 8.23217C1.10281 9.08152 1.03748 10.8455 0.5148 11.5642Z" fill="white"/>
</svg>
