<?xml version="1.0" encoding="utf-8"?>
<!-- Generator: Adobe Illustrator 18.0.0, SVG Export Plug-In . SVG Version: 6.00 Build 0)  -->
<!DOCTYPE svg PUBLIC "-//W3C//DTD SVG 1.1//EN" "http://www.w3.org/Graphics/SVG/1.1/DTD/svg11.dtd">
<svg version="1.1" id="Layer_1" xmlns="http://www.w3.org/2000/svg" xmlns:xlink="http://www.w3.org/1999/xlink" x="0px" y="0px"
	 viewBox="156 246 300 300" enable-background="new 156 246 300 300" xml:space="preserve">
<g>
	<rect x="237.6" y="277.8" fill="#FFFFFF" width="16.5" height="16.5"/>
	<rect x="237.6" y="297.9" fill="#FFFFFF" width="16.5" height="16.5"/>
	<rect x="237.6" y="317.6" fill="#FFFFFF" width="16.5" height="16.5"/>
	<rect x="237.6" y="357.7" fill="#FFFFFF" width="16.5" height="16.5"/>
	<rect x="237.6" y="337.6" fill="#FFFFFF" width="16.5" height="16.5"/>
	<rect x="237.6" y="377.7" fill="#FFFFFF" width="16.5" height="16.5"/>
	<rect x="237.6" y="397.8" fill="#FFFFFF" width="16.5" height="16.5"/>
	<rect x="237.6" y="437.8" fill="#FFFFFF" width="16.5" height="16.5"/>
	<rect x="237.6" y="417.8" fill="#FFFFFF" width="16.5" height="16.5"/>
	<rect x="237.6" y="497.6" fill="#FFFFFF" width="16.5" height="16.5"/>
	<rect x="237.6" y="457.5" fill="#FFFFFF" width="16.5" height="16.5"/>
	<rect x="237.6" y="477.6" fill="#FFFFFF" width="16.5" height="16.5"/>
	<rect x="257.6" y="277.8" fill="#FFFFFF" width="16.5" height="16.5"/>
	<rect x="257.6" y="477.6" fill="#FFFFFF" width="16.5" height="16.5"/>
	<rect x="277.7" y="277.8" fill="#FFFFFF" width="16.5" height="16.5"/>
	<rect x="277.7" y="457.5" fill="#FFFFFF" width="16.5" height="16.5"/>
	<rect x="297.7" y="277.8" fill="#FFFFFF" width="16.5" height="16.5"/>
	<rect x="297.7" y="437.8" fill="#FFFFFF" width="16.5" height="16.5"/>
	<rect x="317.8" y="277.8" fill="#FFFFFF" width="16.5" height="16.5"/>
	<rect x="317.8" y="457.5" fill="#FFFFFF" width="16.5" height="16.5"/>
	<rect x="337.8" y="277.8" fill="#FFFFFF" width="16.5" height="16.5"/>
	<rect x="337.8" y="477.6" fill="#FFFFFF" width="16.5" height="16.5"/>
	<rect x="357.9" y="277.8" fill="#FFFFFF" width="16.5" height="16.5"/>
	<rect x="357.9" y="297.9" fill="#FFFFFF" width="16.5" height="16.5"/>
	<rect x="357.9" y="317.6" fill="#FFFFFF" width="16.5" height="16.5"/>
	<rect x="357.9" y="357.7" fill="#FFFFFF" width="16.5" height="16.5"/>
	<rect x="357.9" y="337.6" fill="#FFFFFF" width="16.5" height="16.5"/>
	<rect x="357.9" y="377.7" fill="#FFFFFF" width="16.5" height="16.5"/>
	<rect x="357.9" y="397.8" fill="#FFFFFF" width="16.5" height="16.5"/>
	<rect x="357.9" y="437.8" fill="#FFFFFF" width="16.5" height="16.5"/>
	<rect x="357.9" y="417.8" fill="#FFFFFF" width="16.5" height="16.5"/>
	<rect x="357.9" y="497.6" fill="#FFFFFF" width="16.5" height="16.5"/>
	<rect x="357.9" y="457.5" fill="#FFFFFF" width="16.5" height="16.5"/>
	<rect x="357.9" y="477.6" fill="#FFFFFF" width="16.5" height="16.5"/>
</g>
</svg>
