<svg width="45" height="34" viewBox="0 0 45 34" fill="none" xmlns="http://www.w3.org/2000/svg">
<path d="M44.5 17.0781C44.5 16.9141 44.4531 16.7969 44.3359 16.6797L28.4219 0.601562C28.0938 0.25 27.9062 0.179688 27.7422 0.179688C27.3906 0.179688 27.1797 0.4375 27.1797 0.71875C27.1797 0.90625 27.2031 1.04688 27.3203 1.16406L37.8906 11.7344L42.7656 16.5859L37.8438 16.5391H1.51562C1.23438 16.5391 0.976562 16.7734 0.976562 17.0781C0.976562 17.3828 1.23438 17.6172 1.51562 17.6172H37.8438L42.7656 17.5703L37.8906 22.4219L27.3203 32.9922C27.2266 33.0859 27.1797 33.25 27.1797 33.4141C27.1797 33.6953 27.3906 33.9531 27.7422 33.9531C27.9062 33.9531 28.0234 33.9062 28.1406 33.7891L44.3359 17.4766C44.4531 17.3594 44.5 17.2422 44.5 17.0781Z" fill="black"/>
</svg>
