<svg width="16" height="16" viewBox="0 0 16 16" fill="none" xmlns="http://www.w3.org/2000/svg">
<path fill-rule="evenodd" clip-rule="evenodd" d="M15.117 0H0.883047C0.395303 0 0 0.395303 0 0.883047V15.117C0 15.6046 0.395303 16.0001 0.883047 16.0001H8.54613V9.80398H6.46099V7.38924H8.54613V5.60846C8.54613 3.5419 9.8083 2.4166 11.6518 2.4166C12.535 2.4166 13.2939 2.4823 13.5151 2.51168V4.6714L12.2365 4.672C11.2339 4.672 11.0397 5.14841 11.0397 5.84754V7.38924H13.4309L13.1196 9.80398H11.0397V16.0001H15.117C15.6046 16.0001 16 15.6046 16 15.117V0.883047C16 0.395303 15.6046 0 15.117 0Z" fill="white"/>
<mask id="mask0" mask-type="alpha" maskUnits="userSpaceOnUse" x="0" y="0" width="16" height="16">
<path fill-rule="evenodd" clip-rule="evenodd" d="M15.117 0H0.883047C0.395303 0 0 0.395303 0 0.883047V15.117C0 15.6046 0.395303 16.0001 0.883047 16.0001H8.54613V9.80398H6.46099V7.38924H8.54613V5.60846C8.54613 3.5419 9.8083 2.4166 11.6518 2.4166C12.535 2.4166 13.2939 2.4823 13.5151 2.51168V4.6714L12.2365 4.672C11.2339 4.672 11.0397 5.14841 11.0397 5.84754V7.38924H13.4309L13.1196 9.80398H11.0397V16.0001H15.117C15.6046 16.0001 16 15.6046 16 15.117V0.883047C16 0.395303 15.6046 0 15.117 0Z" fill="white"/>
</mask>
<g mask="url(#mask0)">
<rect width="16" height="16" fill="black"/>
</g>
</svg>
