<svg width="11" height="16" viewBox="0 0 11 16" fill="none" xmlns="http://www.w3.org/2000/svg">
<g clip-path="url(#clip0)">
<path d="M2 9.11C2.68 7.93 1.77 7.63 1.63 6.76C1.05 3.18 5.76 0.760001 8.23 3.24C9.93 4.97 8.81 10.24 6.06 9.74C3.31 9.24 7.35 4.93 5.25 4.14C3.54 3.46 2.63 6.21 3.44 7.57C3 9.93 1.94 12.13 2.36 15.07C3.7 14.07 4.15 12.23 4.52 10.28C5.05669 10.7518 5.71495 11.0636 6.42 11.18C9.6 11.43 11.37 8.01 10.94 4.86C10.55 2.07 7.76 0.640001 4.79 0.980001C3.54393 1.09692 2.37944 1.65103 1.50274 2.5442C0.626043 3.43737 0.0937055 4.61197 0 5.86C0 7.51 0.42 8.76 2 9.11Z" fill="black"/>
</g>
<defs>
<clipPath id="clip0">
<rect width="11" height="14.14" fill="white" transform="translate(0 0.93)"/>
</clipPath>
</defs>
</svg>
