<svg width="16" height="16" viewBox="0 0 16 16" fill="none" xmlns="http://www.w3.org/2000/svg">
<path fill-rule="evenodd" clip-rule="evenodd" d="M14.3718 5.52618C14.3718 5.38626 14.3689 5.24697 14.3624 5.10844C15.0033 4.65239 15.5604 4.08332 16 3.43537C15.4118 3.69254 14.7788 3.86591 14.1148 3.94403C14.7926 3.54411 15.3129 2.9111 15.5583 2.15662C14.9239 2.52674 14.2216 2.79594 13.4739 2.9409C12.8749 2.31286 12.0218 1.92 11.0778 1.92C9.26483 1.92 7.79469 3.36715 7.79469 5.15109C7.79469 5.40472 7.82355 5.65124 7.87981 5.88786C5.15168 5.75285 2.73248 4.46698 1.1136 2.51181C0.831424 2.98922 0.669056 3.54411 0.669056 4.13586C0.669056 5.25699 1.24858 6.24664 2.12979 6.8256C1.59142 6.80928 1.0855 6.66363 0.643072 6.42134C0.642304 6.43482 0.642304 6.44836 0.642304 6.46254C0.642304 8.02768 1.77402 9.33416 3.2759 9.63044C3.00026 9.70427 2.71008 9.74409 2.41056 9.74409C2.1991 9.74409 1.99341 9.72349 1.79347 9.68582C2.21139 10.9696 3.42317 11.9038 4.8601 11.9302C3.73638 12.7968 2.32109 13.3133 0.783104 13.3133C0.518208 13.3133 0.25696 13.2984 0 13.2686C1.45286 14.185 3.17779 14.72 5.03187 14.72C11.0699 14.72 14.3718 9.79594 14.3718 5.52618Z" fill="black"/>
<mask id="mask0" mask-type="alpha" maskUnits="userSpaceOnUse" x="0" y="1" width="16" height="14">
<path fill-rule="evenodd" clip-rule="evenodd" d="M14.3718 5.52618C14.3718 5.38626 14.3689 5.24697 14.3624 5.10844C15.0033 4.65239 15.5604 4.08332 16 3.43537C15.4118 3.69254 14.7788 3.86591 14.1148 3.94403C14.7926 3.54411 15.3129 2.9111 15.5583 2.15662C14.9239 2.52674 14.2216 2.79594 13.4739 2.9409C12.8749 2.31286 12.0218 1.92 11.0778 1.92C9.26483 1.92 7.79469 3.36715 7.79469 5.15109C7.79469 5.40472 7.82355 5.65124 7.87981 5.88786C5.15168 5.75285 2.73248 4.46698 1.1136 2.51181C0.831424 2.98922 0.669056 3.54411 0.669056 4.13586C0.669056 5.25699 1.24858 6.24664 2.12979 6.8256C1.59142 6.80928 1.0855 6.66363 0.643072 6.42134C0.642304 6.43482 0.642304 6.44836 0.642304 6.46254C0.642304 8.02768 1.77402 9.33416 3.2759 9.63044C3.00026 9.70427 2.71008 9.74409 2.41056 9.74409C2.1991 9.74409 1.99341 9.72349 1.79347 9.68582C2.21139 10.9696 3.42317 11.9038 4.8601 11.9302C3.73638 12.7968 2.32109 13.3133 0.783104 13.3133C0.518208 13.3133 0.25696 13.2984 0 13.2686C1.45286 14.185 3.17779 14.72 5.03187 14.72C11.0699 14.72 14.3718 9.79594 14.3718 5.52618Z" fill="white"/>
</mask>
<g mask="url(#mask0)">
<rect width="16" height="16" fill="black"/>
</g>
</svg>
