<?xml version="1.0" encoding="utf-8"?>
<!-- Generator: Adobe Illustrator 18.0.0, SVG Export Plug-In . SVG Version: 6.00 Build 0)  -->
<!DOCTYPE svg PUBLIC "-//W3C//DTD SVG 1.1//EN" "http://www.w3.org/Graphics/SVG/1.1/DTD/svg11.dtd">
<svg version="1.1" id="Layer_1" xmlns="http://www.w3.org/2000/svg" xmlns:xlink="http://www.w3.org/1999/xlink" x="0px" y="0px"
	 viewBox="156 246 300 300" enable-background="new 156 246 300 300" xml:space="preserve">
<g>
	<rect x="187.4" y="277.4" fill="#FFFFFF" width="18.1" height="18.1"/>
	<rect x="187.4" y="321" fill="#FFFFFF" width="18.1" height="18.1"/>
	<rect x="187.4" y="365" fill="#FFFFFF" width="18.1" height="18.1"/>
	<rect x="187.4" y="408.9" fill="#FFFFFF" width="18.1" height="18.1"/>
	<rect x="187.4" y="496.4" fill="#FFFFFF" width="18.1" height="18.1"/>
	<rect x="187.4" y="452.5" fill="#FFFFFF" width="18.1" height="18.1"/>
	<rect x="209" y="277.4" fill="#FFFFFF" width="18.1" height="18.1"/>
	<rect x="209" y="321" fill="#FFFFFF" width="18.1" height="18.1"/>
	<rect x="209" y="365" fill="#FFFFFF" width="18.1" height="18.1"/>
	<rect x="209" y="408.9" fill="#FFFFFF" width="18.1" height="18.1"/>
	<rect x="209" y="496.4" fill="#FFFFFF" width="18.1" height="18.1"/>
	<rect x="209" y="452.5" fill="#FFFFFF" width="18.1" height="18.1"/>
	<rect x="231" y="277.4" fill="#FFFFFF" width="18.1" height="18.1"/>
	<rect x="231" y="321" fill="#FFFFFF" width="18.1" height="18.1"/>
	<rect x="231" y="365" fill="#FFFFFF" width="18.1" height="18.1"/>
	<rect x="231" y="408.9" fill="#FFFFFF" width="18.1" height="18.1"/>
	<rect x="231" y="496.4" fill="#FFFFFF" width="18.1" height="18.1"/>
	<rect x="231" y="452.5" fill="#FFFFFF" width="18.1" height="18.1"/>
	<rect x="253" y="277.4" fill="#FFFFFF" width="18.1" height="18.1"/>
	<rect x="253" y="321" fill="#FFFFFF" width="18.1" height="18.1"/>
	<rect x="253" y="365" fill="#FFFFFF" width="18.1" height="18.1"/>
	<rect x="253" y="408.9" fill="#FFFFFF" width="18.1" height="18.1"/>
	<rect x="253" y="496.4" fill="#FFFFFF" width="18.1" height="18.1"/>
	<rect x="253" y="452.5" fill="#FFFFFF" width="18.1" height="18.1"/>
	<rect x="275" y="277.4" fill="#FFFFFF" width="18.1" height="18.1"/>
	<rect x="275" y="321" fill="#FFFFFF" width="18.1" height="18.1"/>
	<rect x="275" y="365" fill="#FFFFFF" width="18.1" height="18.1"/>
	<rect x="275" y="408.9" fill="#FFFFFF" width="18.1" height="18.1"/>
	<rect x="275" y="496.4" fill="#FFFFFF" width="18.1" height="18.1"/>
	<rect x="275" y="452.5" fill="#FFFFFF" width="18.1" height="18.1"/>
	<rect x="296.9" y="277.4" fill="#FFFFFF" width="18.1" height="18.1"/>
	<rect x="296.9" y="321" fill="#FFFFFF" width="18.1" height="18.1"/>
	<rect x="296.9" y="365" fill="#FFFFFF" width="18.1" height="18.1"/>
	<rect x="296.9" y="408.9" fill="#FFFFFF" width="18.1" height="18.1"/>
	<rect x="296.9" y="496.4" fill="#FFFFFF" width="18.1" height="18.1"/>
	<rect x="296.9" y="452.5" fill="#FFFFFF" width="18.1" height="18.1"/>
	<rect x="318.9" y="277.4" fill="#FFFFFF" width="18.1" height="18.1"/>
	<rect x="318.9" y="321" fill="#FFFFFF" width="18.1" height="18.1"/>
	<rect x="318.9" y="365" fill="#FFFFFF" width="18.1" height="18.1"/>
	<rect x="318.9" y="408.9" fill="#FFFFFF" width="18.1" height="18.1"/>
	<rect x="318.9" y="496.4" fill="#FFFFFF" width="18.1" height="18.1"/>
	<rect x="318.9" y="452.5" fill="#FFFFFF" width="18.1" height="18.1"/>
	<rect x="340.9" y="277.4" fill="#FFFFFF" width="18.1" height="18.1"/>
	<rect x="340.9" y="321" fill="#FFFFFF" width="18.1" height="18.1"/>
	<rect x="340.9" y="365" fill="#FFFFFF" width="18.1" height="18.1"/>
	<rect x="340.9" y="408.9" fill="#FFFFFF" width="18.1" height="18.1"/>
	<rect x="340.9" y="496.4" fill="#FFFFFF" width="18.1" height="18.1"/>
	<rect x="340.9" y="452.5" fill="#FFFFFF" width="18.1" height="18.1"/>
	<rect x="362.5" y="277.4" fill="#FFFFFF" width="18.1" height="18.1"/>
	<rect x="362.5" y="321" fill="#FFFFFF" width="18.1" height="18.1"/>
	<rect x="362.5" y="365" fill="#FFFFFF" width="18.1" height="18.1"/>
	<rect x="362.5" y="408.9" fill="#FFFFFF" width="18.1" height="18.1"/>
	<rect x="362.5" y="496.4" fill="#FFFFFF" width="18.1" height="18.1"/>
	<rect x="362.5" y="452.5" fill="#FFFFFF" width="18.1" height="18.1"/>
	<rect x="384.5" y="321" fill="#FFFFFF" width="18.1" height="18.1"/>
	<rect x="384.5" y="408.9" fill="#FFFFFF" width="18.1" height="18.1"/>
	<rect x="384.5" y="496.4" fill="#FFFFFF" width="18.1" height="18.1"/>
	<rect x="406.4" y="321" fill="#FFFFFF" width="18.1" height="18.1"/>
	<rect x="406.4" y="408.9" fill="#FFFFFF" width="18.1" height="18.1"/>
	<rect x="406.4" y="496.4" fill="#FFFFFF" width="18.1" height="18.1"/>
</g>
</svg>
