<svg width="16" height="16" viewBox="0 0 16 16" fill="none" xmlns="http://www.w3.org/2000/svg">
<path fill-rule="evenodd" clip-rule="evenodd" d="M14.3718 5.52611C14.3718 5.38619 14.3689 5.2469 14.3624 5.10836C15.0033 4.65231 15.5604 4.08324 16 3.4353C15.4118 3.69246 14.7788 3.86583 14.1148 3.94395C14.7926 3.54403 15.3129 2.91102 15.5583 2.15655C14.9239 2.52666 14.2216 2.79586 13.4739 2.94082C12.8749 2.31278 12.0218 1.91992 11.0778 1.91992C9.26483 1.91992 7.79469 3.36707 7.79469 5.15101C7.79469 5.40465 7.82355 5.65116 7.87981 5.88778C5.15168 5.75278 2.73248 4.46691 1.1136 2.51173C0.831424 2.98914 0.669056 3.54403 0.669056 4.13578C0.669056 5.25691 1.24858 6.24656 2.12979 6.82552C1.59142 6.80921 1.0855 6.66355 0.643072 6.42126C0.642304 6.43474 0.642304 6.44829 0.642304 6.46246C0.642304 8.02761 1.77402 9.33408 3.2759 9.63036C3.00026 9.7042 2.71008 9.74401 2.41056 9.74401C2.1991 9.74401 1.99341 9.72341 1.79347 9.68574C2.21139 10.9695 3.42317 11.9037 4.8601 11.9301C3.73638 12.7968 2.32109 13.3132 0.783104 13.3132C0.518208 13.3132 0.25696 13.2984 0 13.2685C1.45286 14.1849 3.17779 14.7199 5.03187 14.7199C11.0699 14.7199 14.3718 9.79586 14.3718 5.52611Z" fill="black"/>
<mask id="mask0" mask-type="alpha" maskUnits="userSpaceOnUse" x="0" y="1" width="16" height="14">
<path fill-rule="evenodd" clip-rule="evenodd" d="M14.3718 5.52611C14.3718 5.38619 14.3689 5.2469 14.3624 5.10836C15.0033 4.65231 15.5604 4.08324 16 3.4353C15.4118 3.69246 14.7788 3.86583 14.1148 3.94395C14.7926 3.54403 15.3129 2.91102 15.5583 2.15655C14.9239 2.52666 14.2216 2.79586 13.4739 2.94082C12.8749 2.31278 12.0218 1.91992 11.0778 1.91992C9.26483 1.91992 7.79469 3.36707 7.79469 5.15101C7.79469 5.40465 7.82355 5.65116 7.87981 5.88778C5.15168 5.75278 2.73248 4.46691 1.1136 2.51173C0.831424 2.98914 0.669056 3.54403 0.669056 4.13578C0.669056 5.25691 1.24858 6.24656 2.12979 6.82552C1.59142 6.80921 1.0855 6.66355 0.643072 6.42126C0.642304 6.43474 0.642304 6.44829 0.642304 6.46246C0.642304 8.02761 1.77402 9.33408 3.2759 9.63036C3.00026 9.7042 2.71008 9.74401 2.41056 9.74401C2.1991 9.74401 1.99341 9.72341 1.79347 9.68574C2.21139 10.9695 3.42317 11.9037 4.8601 11.9301C3.73638 12.7968 2.32109 13.3132 0.783104 13.3132C0.518208 13.3132 0.25696 13.2984 0 13.2685C1.45286 14.1849 3.17779 14.7199 5.03187 14.7199C11.0699 14.7199 14.3718 9.79586 14.3718 5.52611Z" fill="white"/>
</mask>
<g mask="url(#mask0)">
<rect width="16" height="16" fill="black"/>
</g>
</svg>
