<?xml version="1.0" encoding="utf-8"?>
<!-- Generator: Adobe Illustrator 18.0.0, SVG Export Plug-In . SVG Version: 6.00 Build 0)  -->
<!DOCTYPE svg PUBLIC "-//W3C//DTD SVG 1.1//EN" "http://www.w3.org/Graphics/SVG/1.1/DTD/svg11.dtd">
<svg version="1.1" id="Layer_1" xmlns="http://www.w3.org/2000/svg" xmlns:xlink="http://www.w3.org/1999/xlink" x="0px" y="0px"
	 viewBox="156 246 300 300" enable-background="new 156 246 300 300" xml:space="preserve">
<g>
	<rect x="169.1" y="314.6" fill="#FFFFFF" width="15.3" height="15.3"/>
	<rect x="169.1" y="351.3" fill="#FFFFFF" width="15.3" height="15.3"/>
	<rect x="169.1" y="388.4" fill="#FFFFFF" width="15.3" height="15.3"/>
	<rect x="169.1" y="425.4" fill="#FFFFFF" width="15.3" height="15.3"/>
	<rect x="169.1" y="462.1" fill="#FFFFFF" width="15.3" height="15.3"/>
	<rect x="187.6" y="314.6" fill="#FFFFFF" width="15.3" height="15.3"/>
	<rect x="187.6" y="351.3" fill="#FFFFFF" width="15.3" height="15.3"/>
	<rect x="187.6" y="388.4" fill="#FFFFFF" width="15.3" height="15.3"/>
	<rect x="187.6" y="425.4" fill="#FFFFFF" width="15.3" height="15.3"/>
	<rect x="187.6" y="462.1" fill="#FFFFFF" width="15.3" height="15.3"/>
	<rect x="206.1" y="314.6" fill="#FFFFFF" width="15.3" height="15.3"/>
	<rect x="206.1" y="351.3" fill="#FFFFFF" width="15.3" height="15.3"/>
	<rect x="206.1" y="388.4" fill="#FFFFFF" width="15.3" height="15.3"/>
	<rect x="206.1" y="425.4" fill="#FFFFFF" width="15.3" height="15.3"/>
	<rect x="206.1" y="462.1" fill="#FFFFFF" width="15.3" height="15.3"/>
	<rect x="224.6" y="314.6" fill="#FFFFFF" width="15.3" height="15.3"/>
	<rect x="224.6" y="351.3" fill="#FFFFFF" width="15.3" height="15.3"/>
	<rect x="224.6" y="388.4" fill="#FFFFFF" width="15.3" height="15.3"/>
	<rect x="224.6" y="425.4" fill="#FFFFFF" width="15.3" height="15.3"/>
	<rect x="242.8" y="314.6" fill="#FFFFFF" width="15.3" height="15.3"/>
	<rect x="242.8" y="351.3" fill="#FFFFFF" width="15.3" height="15.3"/>
	<rect x="242.8" y="388.4" fill="#FFFFFF" width="15.3" height="15.3"/>
	<rect x="242.8" y="425.4" fill="#FFFFFF" width="15.3" height="15.3"/>
	<rect x="261.3" y="314.6" fill="#FFFFFF" width="15.3" height="15.3"/>
	<rect x="261.3" y="351.3" fill="#FFFFFF" width="15.3" height="15.3"/>
	<rect x="261.3" y="388.4" fill="#FFFFFF" width="15.3" height="15.3"/>
	<rect x="261.3" y="425.4" fill="#FFFFFF" width="15.3" height="15.3"/>
	<rect x="279.9" y="314.6" fill="#FFFFFF" width="15.3" height="15.3"/>
	<rect x="279.9" y="351.3" fill="#FFFFFF" width="15.3" height="15.3"/>
	<rect x="279.9" y="388.4" fill="#FFFFFF" width="15.3" height="15.3"/>
	<rect x="279.9" y="425.4" fill="#FFFFFF" width="15.3" height="15.3"/>
	<rect x="316.9" y="314.6" fill="#FFFFFF" width="15.3" height="15.3"/>
	<rect x="316.9" y="351.3" fill="#FFFFFF" width="15.3" height="15.3"/>
	<rect x="316.9" y="388.4" fill="#FFFFFF" width="15.3" height="15.3"/>
	<rect x="316.9" y="425.4" fill="#FFFFFF" width="15.3" height="15.3"/>
	<rect x="316.9" y="462.1" fill="#FFFFFF" width="15.3" height="15.3"/>
	<rect x="335.4" y="314.6" fill="#FFFFFF" width="15.3" height="15.3"/>
	<rect x="335.4" y="351.3" fill="#FFFFFF" width="15.3" height="15.3"/>
	<rect x="335.4" y="388.4" fill="#FFFFFF" width="15.3" height="15.3"/>
	<rect x="335.4" y="425.4" fill="#FFFFFF" width="15.3" height="15.3"/>
	<rect x="335.4" y="462.1" fill="#FFFFFF" width="15.3" height="15.3"/>
	<rect x="353.9" y="314.6" fill="#FFFFFF" width="15.3" height="15.3"/>
	<rect x="353.9" y="351.3" fill="#FFFFFF" width="15.3" height="15.3"/>
	<rect x="353.9" y="388.4" fill="#FFFFFF" width="15.3" height="15.3"/>
	<rect x="353.9" y="425.4" fill="#FFFFFF" width="15.3" height="15.3"/>
	<rect x="353.9" y="462.1" fill="#FFFFFF" width="15.3" height="15.3"/>
	<rect x="372.1" y="314.6" fill="#FFFFFF" width="15.3" height="15.3"/>
	<rect x="372.1" y="351.3" fill="#FFFFFF" width="15.3" height="15.3"/>
	<rect x="372.1" y="388.4" fill="#FFFFFF" width="15.3" height="15.3"/>
	<rect x="372.1" y="425.4" fill="#FFFFFF" width="15.3" height="15.3"/>
	<rect x="390.6" y="314.6" fill="#FFFFFF" width="15.3" height="15.3"/>
	<rect x="390.6" y="351.3" fill="#FFFFFF" width="15.3" height="15.3"/>
	<rect x="390.6" y="388.4" fill="#FFFFFF" width="15.3" height="15.3"/>
	<rect x="390.6" y="425.4" fill="#FFFFFF" width="15.3" height="15.3"/>
	<rect x="409.1" y="314.6" fill="#FFFFFF" width="15.3" height="15.3"/>
	<rect x="409.1" y="351.3" fill="#FFFFFF" width="15.3" height="15.3"/>
	<rect x="409.1" y="388.4" fill="#FFFFFF" width="15.3" height="15.3"/>
	<rect x="409.1" y="425.4" fill="#FFFFFF" width="15.3" height="15.3"/>
	<rect x="427.6" y="314.6" fill="#FFFFFF" width="15.3" height="15.3"/>
	<rect x="427.6" y="351.3" fill="#FFFFFF" width="15.3" height="15.3"/>
	<rect x="427.6" y="388.4" fill="#FFFFFF" width="15.3" height="15.3"/>
	<rect x="427.6" y="425.4" fill="#FFFFFF" width="15.3" height="15.3"/>
</g>
</svg>
