<?xml version="1.0" encoding="utf-8"?>
<!-- Generator: Adobe Illustrator 18.0.0, SVG Export Plug-In . SVG Version: 6.00 Build 0)  -->
<!DOCTYPE svg PUBLIC "-//W3C//DTD SVG 1.1//EN" "http://www.w3.org/Graphics/SVG/1.1/DTD/svg11.dtd">
<svg version="1.1" id="Layer_1" xmlns="http://www.w3.org/2000/svg" xmlns:xlink="http://www.w3.org/1999/xlink" x="0px" y="0px"
	 viewBox="156 321 300 150" enable-background="new 156 321 300 150" xml:space="preserve">
<g>
	<rect x="183.5" y="440" fill="#333333" width="23" height="23"/>
	<rect x="210.9" y="412.1" fill="#333333" width="23" height="23"/>
	<rect x="210.9" y="440" fill="#333333" width="23" height="23"/>
	<rect x="238.8" y="384.8" fill="#333333" width="23" height="23"/>
	<rect x="238.8" y="440" fill="#333333" width="23" height="23"/>
	<rect x="266.6" y="356.9" fill="#333333" width="23" height="23"/>
	<rect x="266.6" y="440" fill="#333333" width="23" height="23"/>
	<rect x="294.5" y="329" fill="#333333" width="23" height="23"/>
	<rect x="294.5" y="440" fill="#333333" width="23" height="23"/>
	<rect x="322.4" y="356.9" fill="#333333" width="23" height="23"/>
	<rect x="322.4" y="440" fill="#333333" width="23" height="23"/>
	<rect x="350.3" y="384.8" fill="#333333" width="23" height="23"/>
	<rect x="350.3" y="440" fill="#333333" width="23" height="23"/>
	<rect x="378.1" y="412.1" fill="#333333" width="23" height="23"/>
	<rect x="378.1" y="440" fill="#333333" width="23" height="23"/>
	<rect x="405.5" y="440" fill="#333333" width="23" height="23"/>
	<rect x="238.8" y="412.1" fill="#333333" width="23" height="23"/>
	<rect x="266.6" y="384.8" fill="#333333" width="23" height="23"/>
	<rect x="266.6" y="412.1" fill="#333333" width="23" height="23"/>
	<rect x="294.5" y="356.9" fill="#333333" width="23" height="23"/>
	<rect x="294.5" y="384.8" fill="#333333" width="23" height="23"/>
	<rect x="294.5" y="412.1" fill="#333333" width="23" height="23"/>
	<rect x="322.4" y="384.8" fill="#333333" width="23" height="23"/>
	<rect x="322.4" y="412.1" fill="#333333" width="23" height="23"/>
	<rect x="350.3" y="412.1" fill="#333333" width="23" height="23"/>
</g>
</svg>
