<svg width="45" height="39" viewBox="0 0 45 39" fill="none" xmlns="http://www.w3.org/2000/svg">
<path d="M11.25 30.8895H17.7188V28.0594H11.25C6.82031 28.0594 3.55078 25.1414 3.55078 21.5731C3.55078 18.2156 5.67773 15.4383 9.4043 15.4383C9.65039 15.4383 9.73828 15.2977 9.73828 15.0692C9.73828 9.67267 13.623 8.17853 17.2441 9.23322C17.4551 9.30353 17.5781 9.26837 17.6836 9.07501C19.3887 6.034 22.0078 3.52032 26.5605 3.52032C32.3262 3.52032 36.3164 8.09064 36.6152 13.3289C36.668 14.1199 36.6152 15.0692 36.5449 15.8953C36.5273 16.1238 36.6152 16.2645 36.8262 16.2996C40.0254 17.0027 42.082 19.3406 42.082 22.3465C42.082 25.6336 39.1992 28.0594 35.4551 28.0594H28.0723V30.8895H35.4551C40.7637 30.8895 44.9121 27.1805 44.9121 22.3465C44.9121 18.8484 42.7852 15.6317 39.3574 14.1902C39.3926 6.3504 33.75 0.690247 26.5605 0.690247C21.7969 0.690247 18.4043 3.23907 16.2949 6.31525C12.3047 5.24298 7.25977 8.33673 7.17188 13.2762C3.19922 13.909 0.720703 17.4422 0.720703 21.5731C0.720703 26.7234 5.23828 30.8895 11.25 30.8895ZM22.9043 38.5535C23.6602 38.5535 24.293 37.9383 24.293 37.2V20.7117L24.1875 17.4598L25.3652 18.7078L28.0371 21.3621C28.3008 21.6258 28.6523 21.784 28.9863 21.784C29.707 21.784 30.2695 21.2742 30.2695 20.5535C30.2695 20.1844 30.1289 19.868 29.8477 19.6219L23.9062 14.0672C23.5371 13.7332 23.2559 13.6102 22.9043 13.6102C22.5352 13.6102 22.2539 13.7332 21.8848 14.0672L15.9434 19.6219C15.6445 19.868 15.5215 20.1844 15.5215 20.5535C15.5215 21.2742 16.0488 21.784 16.7871 21.784C17.1211 21.784 17.4902 21.6258 17.7539 21.3621L20.4258 18.7078L21.6035 17.4598L21.498 20.7117V37.2C21.498 37.9383 22.1484 38.5535 22.9043 38.5535Z" fill="#BDBDBD"/>
</svg>
