<?xml version="1.0" encoding="utf-8"?>
<!-- Generator: Adobe Illustrator 18.0.0, SVG Export Plug-In . SVG Version: 6.00 Build 0)  -->
<!DOCTYPE svg PUBLIC "-//W3C//DTD SVG 1.1//EN" "http://www.w3.org/Graphics/SVG/1.1/DTD/svg11.dtd">
<svg version="1.1" id="Layer_1" xmlns="http://www.w3.org/2000/svg" xmlns:xlink="http://www.w3.org/1999/xlink" x="0px" y="0px"
	 viewBox="156 246 300 300" enable-background="new 156 246 300 300" xml:space="preserve">
<g>
	<rect x="168.7" y="286.5" fill="#FFFFFF" width="23.1" height="23.1"/>
	<rect x="168.7" y="342.6" fill="#FFFFFF" width="23.1" height="23.1"/>
	<rect x="168.7" y="314.6" fill="#FFFFFF" width="23.1" height="23.1"/>
	<rect x="168.7" y="370.7" fill="#FFFFFF" width="23.1" height="23.1"/>
	<rect x="168.7" y="398.7" fill="#FFFFFF" width="23.1" height="23.1"/>
	<rect x="168.7" y="426.8" fill="#FFFFFF" width="23.1" height="23.1"/>
	<rect x="196.3" y="286.5" fill="#FFFFFF" width="23.1" height="23.1"/>
	<rect x="196.3" y="426.8" fill="#FFFFFF" width="23.1" height="23.1"/>
	<rect x="224.3" y="286.5" fill="#FFFFFF" width="23.1" height="23.1"/>
	<rect x="224.3" y="426.8" fill="#FFFFFF" width="23.1" height="23.1"/>
	<rect x="252.4" y="286.5" fill="#FFFFFF" width="23.1" height="23.1"/>
	<rect x="252.4" y="426.8" fill="#FFFFFF" width="23.1" height="23.1"/>
	<rect x="280.4" y="286.5" fill="#FFFFFF" width="23.1" height="23.1"/>
	<rect x="308.5" y="286.5" fill="#FFFFFF" width="23.1" height="23.1"/>
	<rect x="308.5" y="370.7" fill="#FFFFFF" width="23.1" height="23.1"/>
	<rect x="308.5" y="398.7" fill="#FFFFFF" width="23.1" height="23.1"/>
	<rect x="308.5" y="454.8" fill="#FFFFFF" width="23.1" height="23.1"/>
	<rect x="308.5" y="426.8" fill="#FFFFFF" width="23.1" height="23.1"/>
	<rect x="336.5" y="286.5" fill="#FFFFFF" width="23.1" height="23.1"/>
	<rect x="336.5" y="370.7" fill="#FFFFFF" width="23.1" height="23.1"/>
	<rect x="336.5" y="398.7" fill="#FFFFFF" width="23.1" height="23.1"/>
	<rect x="364.6" y="286.5" fill="#FFFFFF" width="23.1" height="23.1"/>
	<rect x="364.6" y="314.6" fill="#FFFFFF" width="23.1" height="23.1"/>
	<rect x="364.6" y="370.7" fill="#FFFFFF" width="23.1" height="23.1"/>
	<rect x="364.6" y="426.8" fill="#FFFFFF" width="23.1" height="23.1"/>
	<rect x="392.1" y="370.7" fill="#FFFFFF" width="23.1" height="23.1"/>
	<rect x="392.1" y="454.8" fill="#FFFFFF" width="23.1" height="23.1"/>
	<rect x="420.2" y="482.4" fill="#FFFFFF" width="23.1" height="23.1"/>
</g>
</svg>
