<?xml version="1.0" encoding="utf-8"?>
<!-- Generator: Adobe Illustrator 18.0.0, SVG Export Plug-In . SVG Version: 6.00 Build 0)  -->
<!DOCTYPE svg PUBLIC "-//W3C//DTD SVG 1.1//EN" "http://www.w3.org/Graphics/SVG/1.1/DTD/svg11.dtd">
<svg version="1.1" id="Layer_1" xmlns="http://www.w3.org/2000/svg" xmlns:xlink="http://www.w3.org/1999/xlink" x="0px" y="0px"
	 viewBox="156 246 300 300" enable-background="new 156 246 300 300" xml:space="preserve">
<g>
	<rect x="183" y="364.2" fill="#333333" width="13.7" height="13.7"/>
	<rect x="183" y="347.5" fill="#333333" width="13.7" height="13.7"/>
	<rect x="183" y="380.8" fill="#333333" width="13.7" height="13.7"/>
	<rect x="183" y="397.5" fill="#333333" width="13.7" height="13.7"/>
	<rect x="183" y="430.7" fill="#333333" width="13.7" height="13.7"/>
	<rect x="183" y="414.1" fill="#333333" width="13.7" height="13.7"/>
	<rect x="183" y="480.4" fill="#333333" width="13.7" height="13.7"/>
	<rect x="183" y="447.1" fill="#333333" width="13.7" height="13.7"/>
	<rect x="183" y="463.7" fill="#333333" width="13.7" height="13.7"/>
	<rect x="183" y="497" fill="#333333" width="13.7" height="13.7"/>
	<rect x="199.6" y="347.5" fill="#333333" width="13.7" height="13.7"/>
	<rect x="199.6" y="497" fill="#333333" width="13.7" height="13.7"/>
	<rect x="216.2" y="347.5" fill="#333333" width="13.7" height="13.7"/>
	<rect x="216.2" y="497" fill="#333333" width="13.7" height="13.7"/>
	<rect x="232.6" y="364.2" fill="#333333" width="13.7" height="13.7"/>
	<rect x="232.6" y="347.5" fill="#333333" width="13.7" height="13.7"/>
	<rect x="232.6" y="380.8" fill="#333333" width="13.7" height="13.7"/>
	<rect x="232.6" y="397.5" fill="#333333" width="13.7" height="13.7"/>
	<rect x="232.6" y="430.7" fill="#333333" width="13.7" height="13.7"/>
	<rect x="232.6" y="414.1" fill="#333333" width="13.7" height="13.7"/>
	<rect x="232.6" y="480.4" fill="#333333" width="13.7" height="13.7"/>
	<rect x="232.6" y="447.1" fill="#333333" width="13.7" height="13.7"/>
	<rect x="232.6" y="463.7" fill="#333333" width="13.7" height="13.7"/>
	<rect x="232.6" y="497" fill="#333333" width="13.7" height="13.7"/>
	<rect x="249.2" y="364.2" fill="#333333" width="13.7" height="13.7"/>
	<rect x="249.2" y="480.4" fill="#333333" width="13.7" height="13.7"/>
	<rect x="265.9" y="347.5" fill="#333333" width="13.7" height="13.7"/>
	<rect x="265.9" y="480.4" fill="#333333" width="13.7" height="13.7"/>
	<rect x="282.5" y="281.3" fill="#333333" width="13.7" height="13.7"/>
	<rect x="282.5" y="297.9" fill="#333333" width="13.7" height="13.7"/>
	<rect x="282.5" y="314.6" fill="#333333" width="13.7" height="13.7"/>
	<rect x="282.5" y="330.9" fill="#333333" width="13.7" height="13.7"/>
	<rect x="282.5" y="480.4" fill="#333333" width="13.7" height="13.7"/>
	<rect x="299.1" y="281.3" fill="#333333" width="13.7" height="13.7"/>
	<rect x="299.1" y="497" fill="#333333" width="13.7" height="13.7"/>
	<rect x="315.8" y="297.9" fill="#333333" width="13.7" height="13.7"/>
	<rect x="315.8" y="314.6" fill="#333333" width="13.7" height="13.7"/>
	<rect x="315.8" y="330.9" fill="#333333" width="13.7" height="13.7"/>
	<rect x="315.8" y="347.5" fill="#333333" width="13.7" height="13.7"/>
	<rect x="315.8" y="497" fill="#333333" width="13.7" height="13.7"/>
	<rect x="332.4" y="364.2" fill="#333333" width="13.7" height="13.7"/>
	<rect x="332.4" y="497" fill="#333333" width="13.7" height="13.7"/>
	<rect x="348.8" y="364.2" fill="#333333" width="13.7" height="13.7"/>
	<rect x="348.8" y="497" fill="#333333" width="13.7" height="13.7"/>
	<rect x="365.4" y="364.2" fill="#333333" width="13.7" height="13.7"/>
	<rect x="365.4" y="497" fill="#333333" width="13.7" height="13.7"/>
	<rect x="382" y="364.2" fill="#333333" width="13.7" height="13.7"/>
	<rect x="382" y="480.4" fill="#333333" width="13.7" height="13.7"/>
	<rect x="382" y="463.7" fill="#333333" width="13.7" height="13.7"/>
	<rect x="398.7" y="364.2" fill="#333333" width="13.7" height="13.7"/>
	<rect x="398.7" y="430.7" fill="#333333" width="13.7" height="13.7"/>
	<rect x="398.7" y="447.1" fill="#333333" width="13.7" height="13.7"/>
	<rect x="415.3" y="380.8" fill="#333333" width="13.7" height="13.7"/>
	<rect x="415.3" y="397.5" fill="#333333" width="13.7" height="13.7"/>
	<rect x="415.3" y="414.1" fill="#333333" width="13.7" height="13.7"/>
</g>
</svg>
