<svg width="17" height="9" viewBox="0 0 17 9" fill="none" xmlns="http://www.w3.org/2000/svg">
<g style="mix-blend-mode:exclusion">
<path d="M1.57812 2.05469H16.2031C16.5312 2.05469 16.7969 1.79688 16.7969 1.46875C16.7969 1.14062 16.5312 0.875 16.2031 0.875H1.57812C1.25 0.875 0.992188 1.14062 0.992188 1.46875C0.992188 1.79688 1.25 2.05469 1.57812 2.05469ZM1.57812 5.46094H16.2031C16.5312 5.46094 16.7969 5.20312 16.7969 4.875C16.7969 4.53906 16.5312 4.27344 16.2031 4.27344H1.57812C1.25 4.27344 0.992188 4.53906 0.992188 4.875C0.992188 5.20312 1.25 5.46094 1.57812 5.46094ZM1.57812 8.875H16.2031C16.5312 8.875 16.7969 8.60938 16.7969 8.27344C16.7969 7.94531 16.5312 7.6875 16.2031 7.6875H1.57812C1.25 7.6875 0.992188 7.94531 0.992188 8.27344C0.992188 8.60938 1.25 8.875 1.57812 8.875Z" fill="white"/>
</g>
</svg>
